<svg width="640" height="420" viewBox="0 0 640 420" fill="none" xmlns="http://www.w3.org/2000/svg">
  <rect width="640" height="420" rx="28" fill="#ECFEFF"/>
  <rect x="28" y="28" width="584" height="364" rx="22" fill="white" stroke="#99F6E4" stroke-width="2"/>
  <rect x="56" y="56" width="178" height="36" rx="18" fill="#CCFBF1"/>
  <text x="93" y="80" fill="#0F766E" font-family="Arial, Helvetica, sans-serif" font-size="14" font-weight="700">NIMBUS LEARNING</text>
  <text x="56" y="150" fill="#0F172A" font-family="Arial, Helvetica, sans-serif" font-size="32" font-weight="700">Cloud Product</text>
  <text x="56" y="192" fill="#0F172A" font-family="Arial, Helvetica, sans-serif" font-size="32" font-weight="700">Delivery</text>
  <text x="56" y="246" fill="#64748B" font-family="Arial, Helvetica, sans-serif" font-size="18">Awarded for shipping product workflows, release</text>
  <text x="56" y="274" fill="#64748B" font-family="Arial, Helvetica, sans-serif" font-size="18">plans, and cloud service coordination at scale.</text>
  <rect x="56" y="316" width="190" height="44" rx="18" fill="#0F172A"/>
  <text x="87" y="344" fill="#F8FAFC" font-family="Arial, Helvetica, sans-serif" font-size="16" font-weight="700">Credential Snapshot</text>
  <path d="M460 118C483 94 526 98 543 126C570 126 590 146 590 172C590 200 568 222 540 222H452C424 222 402 200 402 172C402 146 422 125 448 124C451 122 455 120 460 118Z" fill="#14B8A6"/>
  <path d="M476 254V318" stroke="#0F766E" stroke-width="16" stroke-linecap="round"/>
  <path d="M432 318H520" stroke="#0F766E" stroke-width="16" stroke-linecap="round"/>
  <path d="M526 254V302" stroke="#2DD4BF" stroke-width="12" stroke-linecap="round"/>
  <path d="M430 276H554" stroke="#5EEAD4" stroke-width="12" stroke-linecap="round"/>
</svg>
